<?xml version="1.0" encoding="UTF-8"?>
<svg width="179.51mm" height="37.846mm" version="1.1" viewBox="0 0 179.51 37.846" xmlns="http://www.w3.org/2000/svg" xmlns:cc="http://creativecommons.org/ns#" xmlns:dc="http://purl.org/dc/elements/1.1/" xmlns:rdf="http://www.w3.org/1999/02/22-rdf-syntax-ns#">
	<metadata>
		<rdf:RDF>
			<cc:Work rdf:about="">
				<dc:format>image/svg+xml</dc:format>
				<dc:type rdf:resource="http://purl.org/dc/dcmitype/StillImage"/>
			</cc:Work>
		</rdf:RDF>
	</metadata>
	<g transform="translate(-603.21 -96.595)">
		<g transform="matrix(.26458 0 0 .26458 553.66 .75283)" aria-label="ORIGEN">
			<path d="m307.45 485.31q-19.2 19.968-50.688 19.968t-50.496-19.968q-19.008-20.16-19.008-51.456t19.008-51.456 50.496-20.16 50.688 20.16 19.2 51.456-19.2 51.456zm-72-23.04q7.488 10.944 21.504 10.944t21.504-10.944 7.488-28.416-7.488-28.416q-7.488-11.136-21.504-11.136t-21.504 11.136q-7.488 10.944-7.488 28.416t7.488 28.416z" style=""/>
			<path d="m327.76 502.01v-137.28h68.16q22.464 0 37.056 10.56 14.784 10.368 14.784 30.336 0 23.232-22.464 33.408v0.576q15.552 5.952 19.2 22.656 1.536 6.528 1.92 16.32 0.384 9.6 0.96 15.168t2.688 6.144v2.112h-39.552q-1.728-1.152-2.304-6.144-0.576-5.184-1.152-13.056t-1.728-12.672q-1.92-8.256-6.144-12.096t-12.672-3.84h-18.624v47.808zm40.128-105.79v29.376h21.504q17.856 0 17.856-14.592 0-6.912-4.416-10.752-4.416-4.032-12.864-4.032z" style=""/>
			<path d="m450.51 502.01v-137.28h40.128v137.28z" style=""/>
			<path d="m598.89 502.01-3.072-14.592h-0.384q-12.288 17.856-39.36 17.856-28.224 0-45.312-18.24-19.008-20.16-19.008-53.184 0-31.104 18.432-51.264 18.624-20.352 49.728-20.352 26.688 0 43.2 13.056t19.776 36.096h-38.784q-1.728-6.912-7.872-11.52-5.952-4.608-14.784-4.608-14.016 0-21.504 10.56t-7.488 28.032q0 17.28 8.064 28.224 8.256 10.944 22.464 10.944 19.584 0 24.192-17.088h-18.24v-28.416h56.64v74.496z" style=""/>
			<path d="m629.26 502.01v-137.28h106.94v32.64h-66.816v18.624h55.872v30.144h-55.872v21.504h68.736v34.368z" style=""/>
			<path d="m741.51 502.01v-137.28h40.128l44.928 77.184h0.384v-77.184h38.784v137.28h-41.472l-43.584-77.76h-0.384v77.76z" style=""/>
		</g>
	</g>
</svg>
